<?xml version="1.0" standalone="no"?>
<!DOCTYPE svg PUBLIC "-//W3C//DTD SVG 20010904//EN"
 "http://www.w3.org/TR/2001/REC-SVG-20010904/DTD/svg10.dtd">
<svg version="1.0" xmlns="http://www.w3.org/2000/svg"
 width="700.000000pt" height="700.000000pt" viewBox="0 0 700.000000 700.000000"
 preserveAspectRatio="xMidYMid meet">
<metadata>
Created by potrace 1.11, written by Peter Selinger 2001-2013
</metadata>
<g transform="translate(0.000000,700.000000) scale(0.100000,-0.100000)"
fill="#000000" stroke="none">
<path d="M3305 6979 c-876 -48 -1686 -417 -2302 -1050 -134 -138 -188 -200
-297 -346 -921 -1231 -921 -2932 0 -4166 199 -267 441 -509 711 -711 1231
-921 2935 -921 4166 0 1091 817 1604 2172 1328 3510 -139 675 -479 1290 -982
1781 -138 134 -200 188 -346 297 -475 355 -1038 584 -1624 661 -108 14 -432
36 -489 33 -14 0 -88 -4 -165 -9z m115 -2314 l0 -135 -420 0 -420 0 0 -1045 0
-1046 -157 3 -158 3 -3 1043 -2 1042 -415 0 -415 0 0 135 0 135 995 0 995 0 0
-135z m630 -350 l0 -485 578 2 577 3 3 483 2 482 155 0 155 0 0 -1180 0 -1180
-155 0 -155 0 0 560 0 560 -580 0 -580 0 0 -560 0 -560 -160 0 -160 0 0 1180
0 1180 160 0 160 0 0 -485z"/>
</g>
</svg>
